<mxfile host="app.diagrams.net" modified="2021-07-26T23:18:03.500Z" agent="5.0 (Windows NT 10.0; Win64; x64) AppleWebKit/537.36 (KHTML, like Gecko) Chrome/91.0.4472.164 Safari/537.36" etag="AdUhHpfeiZl5341qux8-" version="14.9.2" type="github">
  <diagram id="C5RBs43oDa-KdzZeNtuy" name="Page-1">
    <mxGraphModel dx="1422" dy="762" grid="1" gridSize="10" guides="1" tooltips="1" connect="1" arrows="1" fold="1" page="1" pageScale="1" pageWidth="827" pageHeight="1169" math="0" shadow="0">
      <root>
        <mxCell id="WIyWlLk6GJQsqaUBKTNV-0" />
        <mxCell id="WIyWlLk6GJQsqaUBKTNV-1" parent="WIyWlLk6GJQsqaUBKTNV-0" />
        <mxCell id="sBFdFRV3hhYaXsGBTGsZ-0" value="Views" style="whiteSpace=wrap;html=1;aspect=fixed;verticalAlign=top;align=center;" vertex="1" parent="WIyWlLk6GJQsqaUBKTNV-1">
          <mxGeometry x="510" y="585" width="370" height="370" as="geometry" />
        </mxCell>
        <mxCell id="sBFdFRV3hhYaXsGBTGsZ-1" value="Presenters" style="whiteSpace=wrap;html=1;aspect=fixed;verticalAlign=top;align=center;" vertex="1" parent="WIyWlLk6GJQsqaUBKTNV-1">
          <mxGeometry x="360" y="40" width="430" height="430" as="geometry" />
        </mxCell>
        <mxCell id="sBFdFRV3hhYaXsGBTGsZ-2" value="Models" style="whiteSpace=wrap;html=1;aspect=fixed;verticalAlign=top;align=center;" vertex="1" parent="WIyWlLk6GJQsqaUBKTNV-1">
          <mxGeometry x="30" y="610" width="370" height="370" as="geometry" />
        </mxCell>
        <mxCell id="sBFdFRV3hhYaXsGBTGsZ-13" value="Bios" style="swimlane;fontStyle=0;childLayout=stackLayout;horizontal=1;startSize=26;fillColor=none;horizontalStack=0;resizeParent=1;resizeParentMax=0;resizeLast=0;collapsible=1;marginBottom=0;align=center;verticalAlign=top;" vertex="1" parent="WIyWlLk6GJQsqaUBKTNV-1">
          <mxGeometry x="145" y="652.25" width="140" height="52" as="geometry" />
        </mxCell>
        <mxCell id="sBFdFRV3hhYaXsGBTGsZ-17" value="Jobs" style="swimlane;fontStyle=0;childLayout=stackLayout;horizontal=1;startSize=26;fillColor=none;horizontalStack=0;resizeParent=1;resizeParentMax=0;resizeLast=0;collapsible=1;marginBottom=0;align=center;verticalAlign=top;" vertex="1" parent="WIyWlLk6GJQsqaUBKTNV-1">
          <mxGeometry x="145" y="730.25" width="140" height="52" as="geometry" />
        </mxCell>
        <mxCell id="sBFdFRV3hhYaXsGBTGsZ-18" value="Peoples" style="swimlane;fontStyle=0;childLayout=stackLayout;horizontal=1;startSize=26;fillColor=none;horizontalStack=0;resizeParent=1;resizeParentMax=0;resizeLast=0;collapsible=1;marginBottom=0;align=center;verticalAlign=top;" vertex="1" parent="WIyWlLk6GJQsqaUBKTNV-1">
          <mxGeometry x="145" y="808.25" width="140" height="52" as="geometry" />
        </mxCell>
        <mxCell id="sBFdFRV3hhYaXsGBTGsZ-19" value="Opportunities" style="swimlane;fontStyle=0;childLayout=stackLayout;horizontal=1;startSize=26;fillColor=none;horizontalStack=0;resizeParent=1;resizeParentMax=0;resizeLast=0;collapsible=1;marginBottom=0;align=center;verticalAlign=top;" vertex="1" parent="WIyWlLk6GJQsqaUBKTNV-1">
          <mxGeometry x="145" y="885.75" width="140" height="52" as="geometry" />
        </mxCell>
        <mxCell id="sBFdFRV3hhYaXsGBTGsZ-20" value="RateAppManager" style="swimlane;fontStyle=0;childLayout=stackLayout;horizontal=1;startSize=26;fillColor=none;horizontalStack=0;resizeParent=1;resizeParentMax=0;resizeLast=0;collapsible=1;marginBottom=0;align=center;verticalAlign=top;" vertex="1" parent="WIyWlLk6GJQsqaUBKTNV-1">
          <mxGeometry x="510" y="94" width="140" height="52" as="geometry" />
        </mxCell>
        <mxCell id="sBFdFRV3hhYaXsGBTGsZ-24" value="FirebaseManager" style="swimlane;fontStyle=0;childLayout=stackLayout;horizontal=1;startSize=26;fillColor=none;horizontalStack=0;resizeParent=1;resizeParentMax=0;resizeLast=0;collapsible=1;marginBottom=0;align=center;verticalAlign=top;" vertex="1" parent="WIyWlLk6GJQsqaUBKTNV-1">
          <mxGeometry x="510" y="166" width="140" height="52" as="geometry" />
        </mxCell>
        <mxCell id="sBFdFRV3hhYaXsGBTGsZ-25" value="AdsManager" style="swimlane;fontStyle=0;childLayout=stackLayout;horizontal=1;startSize=26;fillColor=none;horizontalStack=0;resizeParent=1;resizeParentMax=0;resizeLast=0;collapsible=1;marginBottom=0;align=center;verticalAlign=top;" vertex="1" parent="WIyWlLk6GJQsqaUBKTNV-1">
          <mxGeometry x="510" y="237" width="140" height="52" as="geometry" />
        </mxCell>
        <mxCell id="sBFdFRV3hhYaXsGBTGsZ-33" style="edgeStyle=none;orthogonalLoop=1;jettySize=auto;html=1;entryX=1;entryY=0.5;entryDx=0;entryDy=0;startArrow=classic;startFill=1;strokeColor=#000000;" edge="1" parent="WIyWlLk6GJQsqaUBKTNV-1" source="sBFdFRV3hhYaXsGBTGsZ-26" target="sBFdFRV3hhYaXsGBTGsZ-13">
          <mxGeometry relative="1" as="geometry" />
        </mxCell>
        <mxCell id="sBFdFRV3hhYaXsGBTGsZ-34" style="edgeStyle=none;orthogonalLoop=1;jettySize=auto;html=1;entryX=1;entryY=0.5;entryDx=0;entryDy=0;startArrow=classic;startFill=1;strokeColor=#000000;" edge="1" parent="WIyWlLk6GJQsqaUBKTNV-1" source="sBFdFRV3hhYaXsGBTGsZ-26" target="sBFdFRV3hhYaXsGBTGsZ-17">
          <mxGeometry relative="1" as="geometry" />
        </mxCell>
        <mxCell id="sBFdFRV3hhYaXsGBTGsZ-35" style="edgeStyle=none;orthogonalLoop=1;jettySize=auto;html=1;entryX=1;entryY=0.5;entryDx=0;entryDy=0;startArrow=classic;startFill=1;strokeColor=#000000;" edge="1" parent="WIyWlLk6GJQsqaUBKTNV-1" source="sBFdFRV3hhYaXsGBTGsZ-26" target="sBFdFRV3hhYaXsGBTGsZ-18">
          <mxGeometry relative="1" as="geometry" />
        </mxCell>
        <mxCell id="sBFdFRV3hhYaXsGBTGsZ-36" style="edgeStyle=none;orthogonalLoop=1;jettySize=auto;html=1;entryX=1;entryY=0.5;entryDx=0;entryDy=0;startArrow=classic;startFill=1;strokeColor=#000000;" edge="1" parent="WIyWlLk6GJQsqaUBKTNV-1" source="sBFdFRV3hhYaXsGBTGsZ-26" target="sBFdFRV3hhYaXsGBTGsZ-19">
          <mxGeometry relative="1" as="geometry" />
        </mxCell>
        <mxCell id="sBFdFRV3hhYaXsGBTGsZ-52" style="edgeStyle=none;orthogonalLoop=1;jettySize=auto;html=1;startArrow=classic;startFill=1;strokeColor=#000000;" edge="1" parent="WIyWlLk6GJQsqaUBKTNV-1" source="sBFdFRV3hhYaXsGBTGsZ-26" target="sBFdFRV3hhYaXsGBTGsZ-42">
          <mxGeometry relative="1" as="geometry" />
        </mxCell>
        <mxCell id="sBFdFRV3hhYaXsGBTGsZ-53" style="edgeStyle=none;orthogonalLoop=1;jettySize=auto;html=1;entryX=0.429;entryY=0;entryDx=0;entryDy=0;entryPerimeter=0;startArrow=classic;startFill=1;strokeColor=#000000;" edge="1" parent="WIyWlLk6GJQsqaUBKTNV-1" source="sBFdFRV3hhYaXsGBTGsZ-26" target="sBFdFRV3hhYaXsGBTGsZ-47">
          <mxGeometry relative="1" as="geometry" />
        </mxCell>
        <mxCell id="sBFdFRV3hhYaXsGBTGsZ-54" style="edgeStyle=none;orthogonalLoop=1;jettySize=auto;html=1;startArrow=classic;startFill=1;strokeColor=#000000;" edge="1" parent="WIyWlLk6GJQsqaUBKTNV-1" source="sBFdFRV3hhYaXsGBTGsZ-26" target="sBFdFRV3hhYaXsGBTGsZ-46">
          <mxGeometry relative="1" as="geometry" />
        </mxCell>
        <mxCell id="sBFdFRV3hhYaXsGBTGsZ-26" value="Retrofit" style="swimlane;fontStyle=0;childLayout=stackLayout;horizontal=1;startSize=26;fillColor=none;horizontalStack=0;resizeParent=1;resizeParentMax=0;resizeLast=0;collapsible=1;marginBottom=0;align=center;verticalAlign=top;" vertex="1" parent="WIyWlLk6GJQsqaUBKTNV-1">
          <mxGeometry x="510" y="380" width="140" height="52" as="geometry" />
        </mxCell>
        <mxCell id="sBFdFRV3hhYaXsGBTGsZ-30" style="edgeStyle=none;orthogonalLoop=1;jettySize=auto;html=1;entryX=0;entryY=0.5;entryDx=0;entryDy=0;startArrow=classic;startFill=1;strokeColor=#000000;" edge="1" parent="WIyWlLk6GJQsqaUBKTNV-1" source="sBFdFRV3hhYaXsGBTGsZ-27" target="sBFdFRV3hhYaXsGBTGsZ-20">
          <mxGeometry relative="1" as="geometry" />
        </mxCell>
        <mxCell id="sBFdFRV3hhYaXsGBTGsZ-31" style="edgeStyle=none;orthogonalLoop=1;jettySize=auto;html=1;entryX=0;entryY=0.5;entryDx=0;entryDy=0;startArrow=classic;startFill=1;strokeColor=#000000;" edge="1" parent="WIyWlLk6GJQsqaUBKTNV-1" source="sBFdFRV3hhYaXsGBTGsZ-27" target="sBFdFRV3hhYaXsGBTGsZ-24">
          <mxGeometry relative="1" as="geometry" />
        </mxCell>
        <mxCell id="sBFdFRV3hhYaXsGBTGsZ-32" style="edgeStyle=none;orthogonalLoop=1;jettySize=auto;html=1;entryX=0;entryY=0.5;entryDx=0;entryDy=0;startArrow=classic;startFill=1;strokeColor=#000000;" edge="1" parent="WIyWlLk6GJQsqaUBKTNV-1" source="sBFdFRV3hhYaXsGBTGsZ-27" target="sBFdFRV3hhYaXsGBTGsZ-25">
          <mxGeometry relative="1" as="geometry" />
        </mxCell>
        <mxCell id="sBFdFRV3hhYaXsGBTGsZ-27" value="Google Cloud" style="ellipse;shape=cloud;whiteSpace=wrap;html=1;align=center;verticalAlign=middle;" vertex="1" parent="WIyWlLk6GJQsqaUBKTNV-1">
          <mxGeometry x="90" y="40" width="186" height="124" as="geometry" />
        </mxCell>
        <mxCell id="sBFdFRV3hhYaXsGBTGsZ-29" style="orthogonalLoop=1;jettySize=auto;html=1;startArrow=classic;startFill=1;" edge="1" parent="WIyWlLk6GJQsqaUBKTNV-1" source="sBFdFRV3hhYaXsGBTGsZ-28" target="sBFdFRV3hhYaXsGBTGsZ-26">
          <mxGeometry relative="1" as="geometry" />
        </mxCell>
        <mxCell id="sBFdFRV3hhYaXsGBTGsZ-41" style="edgeStyle=none;orthogonalLoop=1;jettySize=auto;html=1;entryX=0;entryY=0.5;entryDx=0;entryDy=0;startArrow=classic;startFill=1;strokeColor=#000000;" edge="1" parent="WIyWlLk6GJQsqaUBKTNV-1" source="sBFdFRV3hhYaXsGBTGsZ-28" target="sBFdFRV3hhYaXsGBTGsZ-37">
          <mxGeometry relative="1" as="geometry" />
        </mxCell>
        <mxCell id="sBFdFRV3hhYaXsGBTGsZ-28" value="Torre.co API" style="ellipse;shape=cloud;whiteSpace=wrap;html=1;align=center;verticalAlign=middle;" vertex="1" parent="WIyWlLk6GJQsqaUBKTNV-1">
          <mxGeometry x="102" y="220" width="174" height="116" as="geometry" />
        </mxCell>
        <mxCell id="sBFdFRV3hhYaXsGBTGsZ-37" value="Picasso" style="swimlane;fontStyle=0;childLayout=stackLayout;horizontal=1;startSize=26;fillColor=none;horizontalStack=0;resizeParent=1;resizeParentMax=0;resizeLast=0;collapsible=1;marginBottom=0;align=center;verticalAlign=middle;" vertex="1" parent="WIyWlLk6GJQsqaUBKTNV-1">
          <mxGeometry x="510" y="309" width="140" height="52" as="geometry" />
        </mxCell>
        <mxCell id="sBFdFRV3hhYaXsGBTGsZ-49" style="edgeStyle=none;orthogonalLoop=1;jettySize=auto;html=1;startArrow=none;startFill=0;strokeColor=#000000;" edge="1" parent="WIyWlLk6GJQsqaUBKTNV-1" source="sBFdFRV3hhYaXsGBTGsZ-42" target="sBFdFRV3hhYaXsGBTGsZ-47">
          <mxGeometry relative="1" as="geometry" />
        </mxCell>
        <mxCell id="sBFdFRV3hhYaXsGBTGsZ-50" style="edgeStyle=none;orthogonalLoop=1;jettySize=auto;html=1;startArrow=none;startFill=0;strokeColor=#000000;" edge="1" parent="WIyWlLk6GJQsqaUBKTNV-1" source="sBFdFRV3hhYaXsGBTGsZ-42" target="sBFdFRV3hhYaXsGBTGsZ-46">
          <mxGeometry relative="1" as="geometry" />
        </mxCell>
        <mxCell id="sBFdFRV3hhYaXsGBTGsZ-42" value="MainActivity" style="swimlane;fontStyle=0;childLayout=stackLayout;horizontal=1;startSize=26;fillColor=none;horizontalStack=0;resizeParent=1;resizeParentMax=0;resizeLast=0;collapsible=1;marginBottom=0;align=center;verticalAlign=middle;" vertex="1" parent="WIyWlLk6GJQsqaUBKTNV-1">
          <mxGeometry x="730" y="630" width="140" height="52" as="geometry" />
        </mxCell>
        <mxCell id="sBFdFRV3hhYaXsGBTGsZ-46" value="JobsActivity" style="swimlane;fontStyle=0;childLayout=stackLayout;horizontal=1;startSize=26;fillColor=none;horizontalStack=0;resizeParent=1;resizeParentMax=0;resizeLast=0;collapsible=1;marginBottom=0;align=center;verticalAlign=middle;" vertex="1" parent="WIyWlLk6GJQsqaUBKTNV-1">
          <mxGeometry x="720" y="790" width="140" height="52" as="geometry" />
        </mxCell>
        <mxCell id="sBFdFRV3hhYaXsGBTGsZ-47" value="BiosActivity" style="swimlane;fontStyle=0;childLayout=stackLayout;horizontal=1;startSize=26;fillColor=none;horizontalStack=0;resizeParent=1;resizeParentMax=0;resizeLast=0;collapsible=1;marginBottom=0;align=center;verticalAlign=middle;" vertex="1" parent="WIyWlLk6GJQsqaUBKTNV-1">
          <mxGeometry x="530" y="790" width="140" height="52" as="geometry" />
        </mxCell>
        <mxCell id="sBFdFRV3hhYaXsGBTGsZ-48" value="DeviceUtils" style="swimlane;fontStyle=0;childLayout=stackLayout;horizontal=1;startSize=26;fillColor=none;horizontalStack=0;resizeParent=1;resizeParentMax=0;resizeLast=0;collapsible=1;marginBottom=0;align=center;verticalAlign=middle;" vertex="1" parent="WIyWlLk6GJQsqaUBKTNV-1">
          <mxGeometry x="630" y="885.75" width="140" height="52" as="geometry" />
        </mxCell>
      </root>
    </mxGraphModel>
  </diagram>
</mxfile>
